PathFileType	4	(X/Y/Z)	dyn.trc	
DataRate	CameraRate	NumFrames	NumMarkers	Units	OrigDataRate	OrigDataStartFrame	OrigNumFrames	
0.00	0.00	18	15	m	100.00	71	211	
Frame#	Time	RTT			RHF			RLM			RMM			RCA			RPT			RST			RVMB			RTN			RSMB			RFMB			RVMH			RSMH			RFMH			RPM			
		X1	Y1	Z1	X2	Y2	Z2	X3	Y3	Z3	X4	Y4	Z4	X5	Y5	Z5	X6	Y6	Z6	X7	Y7	Z7	X8	Y8	Z8	X9	Y9	Z9	X10	Y10	Z10	X11	Y11	Z11	X12	Y12	Z12	X13	Y13	Z13	X14	Y14	Z14	X15	Y15	Z15	

71	0.700	0.31579	0.43188	-0.13673	0.25589	0.45560	-0.08341	0.18574	0.06095	-0.14666	0.21155	0.07998	-0.22388	0.13241	0.02884	-0.19310	0.18492	0.03761	-0.15029	0.20673	0.05056	-0.21942	0.23011	0.02821	-0.13158	0.24475	0.04271	-0.21366	0.27412	0.06378	-0.15872	0.28867	0.04681	-0.19472	0.27782	0.02396	-0.10448	0.32615	0.03482	-0.14391	0.33448	0.03502	-0.18230	0.36986	0.02137	-0.17410 
72	0.710	0.31784	0.43153	-0.13653	0.25812	0.45563	-0.08324	0.18586	0.06131	-0.14662	0.21186	0.08030	-0.22386	0.13243	0.02935	-0.19308	0.18499	0.03796	-0.15023	0.20686	0.05084	-0.21938	0.23016	0.02839	-0.13156	0.24485	0.04288	-0.21363	0.27427	0.06383	-0.15873	0.28879	0.04693	-0.19470	0.27783	0.02398	-0.10446	0.32618	0.03484	-0.14386	0.33449	0.03505	-0.18226	0.36987	0.02140	-0.17406 
73	0.720	0.31994	0.43117	-0.13633	0.26041	0.45568	-0.08306	0.18599	0.06169	-0.14657	0.21216	0.08063	-0.22382	0.13245	0.02990	-0.19305	0.18506	0.03833	-0.15016	0.20700	0.05114	-0.21934	0.23022	0.02858	-0.13153	0.24495	0.04307	-0.21360	0.27442	0.06389	-0.15873	0.28892	0.04705	-0.19468	0.27784	0.02399	-0.10443	0.32622	0.03486	-0.14381	0.33451	0.03508	-0.18222	0.36988	0.02143	-0.17401 
74	0.730	0.32210	0.43083	-0.13612	0.26276	0.45574	-0.08289	0.18613	0.06210	-0.14651	0.21247	0.08097	-0.22375	0.13247	0.03050	-0.19303	0.18512	0.03873	-0.15009	0.20712	0.05147	-0.21930	0.23027	0.02877	-0.13149	0.24505	0.04326	-0.21356	0.27458	0.06397	-0.15871	0.28905	0.04716	-0.19466	0.27785	0.02400	-0.10441	0.32625	0.03487	-0.14376	0.33452	0.03510	-0.18218	0.36989	0.02146	-0.17397 
75	0.740	0.32431	0.43050	-0.13590	0.26516	0.45583	-0.08271	0.18627	0.06253	-0.14644	0.21278	0.08133	-0.22367	0.13250	0.03114	-0.19299	0.18518	0.03915	-0.15002	0.20725	0.05182	-0.21925	0.23032	0.02898	-0.13145	0.24516	0.04347	-0.21352	0.27475	0.06407	-0.15868	0.28918	0.04727	-0.19464	0.27785	0.02400	-0.10438	0.32627	0.03489	-0.14370	0.33454	0.03512	-0.18214	0.36990	0.02149	-0.17392 
76	0.750	0.32658	0.43018	-0.13567	0.26761	0.45593	-0.08253	0.18642	0.06300	-0.14638	0.21310	0.08171	-0.22357	0.13252	0.03184	-0.19295	0.18525	0.03961	-0.14994	0.20737	0.05220	-0.21920	0.23037	0.02919	-0.13139	0.24526	0.04370	-0.21348	0.27492	0.06419	-0.15863	0.28931	0.04738	-0.19461	0.27786	0.02401	-0.10434	0.32629	0.03490	-0.14364	0.33455	0.03513	-0.18210	0.36991	0.02152	-0.17387 
77	0.760	0.32890	0.42989	-0.13542	0.27010	0.45606	-0.08235	0.18659	0.06350	-0.14630	0.21342	0.08210	-0.22345	0.13255	0.03259	-0.19290	0.18531	0.04009	-0.14986	0.20749	0.05262	-0.21914	0.23041	0.02942	-0.13132	0.24536	0.04395	-0.21343	0.27510	0.06433	-0.15856	0.28943	0.04748	-0.19458	0.27786	0.02402	-0.10431	0.32631	0.03491	-0.14357	0.33456	0.03514	-0.18207	0.36991	0.02154	-0.17383 
78	0.770	0.33128	0.42961	-0.13516	0.27263	0.45621	-0.08216	0.18676	0.06403	-0.14622	0.21375	0.08251	-0.22330	0.13259	0.03340	-0.19285	0.18538	0.04060	-0.14977	0.20760	0.05308	-0.21906	0.23046	0.02965	-0.13125	0.24546	0.04422	-0.21337	0.27529	0.06449	-0.15847	0.28955	0.04758	-0.19454	0.27787	0.02402	-0.10427	0.32633	0.03491	-0.14350	0.33456	0.03513	-0.18203	0.36991	0.02155	-0.17379 
79	0.780	0.33370	0.42935	-0.13488	0.27521	0.45639	-0.08197	0.18694	0.06460	-0.14613	0.21409	0.08295	-0.22314	0.13263	0.03427	-0.19278	0.18546	0.04116	-0.14968	0.20772	0.05358	-0.21898	0.23050	0.02991	-0.13116	0.24556	0.04453	-0.21330	0.27549	0.06468	-0.15836	0.28966	0.04769	-0.19448	0.27788	0.02403	-0.10423	0.32634	0.03491	-0.14343	0.33457	0.03512	-0.18199	0.36990	0.02156	-0.17376 
80	0.790	0.33618	0.42911	-0.13458	0.27782	0.45659	-0.08177	0.18713	0.06521	-0.14603	0.21445	0.08341	-0.22295	0.13267	0.03521	-0.19270	0.18554	0.04175	-0.14957	0.20785	0.05414	-0.21888	0.23055	0.03018	-0.13106	0.24566	0.04488	-0.21322	0.27570	0.06489	-0.15824	0.28977	0.04781	-0.19441	0.27789	0.02404	-0.10418	0.32635	0.03490	-0.14335	0.33457	0.03511	-0.18195	0.36989	0.02155	-0.17374 
81	0.800	0.33872	0.42889	-0.13425	0.28048	0.45683	-0.08156	0.18733	0.06587	-0.14592	0.21483	0.08389	-0.22275	0.13272	0.03622	-0.19260	0.18562	0.04239	-0.14946	0.20797	0.05474	-0.21876	0.23060	0.03048	-0.13096	0.24575	0.04526	-0.21312	0.27593	0.06513	-0.15809	0.28988	0.04795	-0.19433	0.27790	0.02405	-0.10414	0.32636	0.03489	-0.14327	0.33457	0.03509	-0.18189	0.36987	0.02155	-0.17371 
82	0.810	0.34130	0.42870	-0.13389	0.28319	0.45709	-0.08134	0.18755	0.06658	-0.14578	0.21523	0.08441	-0.22252	0.13278	0.03729	-0.19248	0.18572	0.04308	-0.14932	0.20811	0.05540	-0.21862	0.23066	0.03080	-0.13083	0.24585	0.04569	-0.21300	0.27618	0.06540	-0.15792	0.28999	0.04810	-0.19422	0.27792	0.02406	-0.10409	0.32637	0.03487	-0.14319	0.33456	0.03507	-0.18183	0.36985	0.02153	-0.17369 
83	0.820	0.34395	0.42852	-0.13352	0.28596	0.45738	-0.08110	0.18779	0.06734	-0.14562	0.21564	0.08498	-0.22227	0.13284	0.03845	-0.19233	0.18583	0.04382	-0.14916	0.20826	0.05612	-0.21845	0.23072	0.03116	-0.13070	0.24595	0.04615	-0.21287	0.27645	0.06569	-0.15772	0.29010	0.04828	-0.19409	0.27795	0.02408	-0.10404	0.32638	0.03486	-0.14310	0.33456	0.03505	-0.18176	0.36982	0.02152	-0.17368 
84	0.830	0.34666	0.42835	-0.13311	0.28879	0.45770	-0.08085	0.18804	0.06816	-0.14542	0.21608	0.08559	-0.22200	0.13292	0.03967	-0.19215	0.18595	0.04461	-0.14898	0.20842	0.05689	-0.21825	0.23079	0.03154	-0.13055	0.24606	0.04667	-0.21271	0.27673	0.06601	-0.15750	0.29022	0.04849	-0.19394	0.27798	0.02410	-0.10398	0.32640	0.03484	-0.14301	0.33456	0.03503	-0.18167	0.36978	0.02150	-0.17367 
85	0.840	0.34944	0.42820	-0.13268	0.29170	0.45805	-0.08058	0.18831	0.06903	-0.14520	0.21652	0.08626	-0.22170	0.13300	0.04097	-0.19193	0.18608	0.04545	-0.14877	0.20860	0.05772	-0.21801	0.23087	0.03196	-0.13037	0.24617	0.04723	-0.21252	0.27704	0.06635	-0.15725	0.29034	0.04872	-0.19376	0.27803	0.02411	-0.10392	0.32643	0.03483	-0.14292	0.33455	0.03502	-0.18157	0.36973	0.02148	-0.17365 
86	0.850	0.35230	0.42807	-0.13223	0.29470	0.45842	-0.08030	0.18860	0.06996	-0.14493	0.21697	0.08698	-0.22138	0.13310	0.04235	-0.19167	0.18623	0.04635	-0.14852	0.20879	0.05860	-0.21774	0.23096	0.03241	-0.13018	0.24628	0.04784	-0.21230	0.27736	0.06672	-0.15697	0.29047	0.04899	-0.19356	0.27809	0.02413	-0.10385	0.32646	0.03481	-0.14282	0.33455	0.03501	-0.18145	0.36968	0.02146	-0.17364 
87	0.860	0.35524	0.42795	-0.13177	0.29779	0.45881	-0.07999	0.18892	0.07095	-0.14462	0.21743	0.08778	-0.22104	0.13321	0.04381	-0.19135	0.18640	0.04731	-0.14823	0.20900	0.05955	-0.21742	0.23106	0.03290	-0.12996	0.24641	0.04850	-0.21204	0.27770	0.06711	-0.15665	0.29061	0.04929	-0.19333	0.27816	0.02414	-0.10378	0.32651	0.03480	-0.14271	0.33455	0.03501	-0.18133	0.36963	0.02145	-0.17362 
88	0.870	0.35828	0.42783	-0.13128	0.30100	0.45922	-0.07967	0.18927	0.07201	-0.14426	0.21790	0.08865	-0.22068	0.13334	0.04535	-0.19099	0.18659	0.04832	-0.14790	0.20923	0.06055	-0.21705	0.23118	0.03342	-0.12972	0.24654	0.04921	-0.21175	0.27804	0.06752	-0.15631	0.29076	0.04962	-0.19307	0.27824	0.02416	-0.10371	0.32657	0.03478	-0.14260	0.33455	0.03501	-0.18119	0.36957	0.02143	-0.17360 
